<svg xmlns="http://www.w3.org/2000/svg" viewBox="0 0 288.64 133.68"><defs><style>.cls-1{fill:#fff;}.cls-2{fill:#fefefe;}</style></defs><g id="Layer_2" data-name="Layer 2"><g id="Layer_1-2" data-name="Layer 1"><path class="cls-1" d="M23.83,133.59v-11.2H25v11.2Z"/><path class="cls-1" d="M44.37,133.59v-11.2h1l7.73,9.72h-.51v-9.72h1.16v11.2h-1l-7.71-9.73h.51v9.73Z"/><path class="cls-1" d="M73.09,133.59v-11.2h4.56a6.59,6.59,0,0,1,3.15.71,5.19,5.19,0,0,1,2.1,2,6,6,0,0,1,0,5.83,5.19,5.19,0,0,1-2.1,2,6.6,6.6,0,0,1-3.15.72Zm1.19-1h3.31a5.4,5.4,0,0,0,2.58-.58,4.31,4.31,0,0,0,1.71-1.62,4.95,4.95,0,0,0,0-4.76A4.35,4.35,0,0,0,80.17,124a5.4,5.4,0,0,0-2.58-.58H74.28Z"/><path class="cls-1" d="M106.53,133.68a4.55,4.55,0,0,1-3.37-1.23,5,5,0,0,1-1.24-3.65v-6.41h1.19v6.36a4.16,4.16,0,0,0,.89,2.93,3.87,3.87,0,0,0,5.08,0,4.16,4.16,0,0,0,.89-2.93v-6.36h1.15v6.41a5,5,0,0,1-1.22,3.65A4.55,4.55,0,0,1,106.53,133.68Z"/><path class="cls-1" d="M133.49,133.68a6.86,6.86,0,0,1-2.39-.41,4.69,4.69,0,0,1-1.77-1l.47-.92a4.53,4.53,0,0,0,1.59,1,5.75,5.75,0,0,0,2.1.39,4.61,4.61,0,0,0,1.72-.26,2.14,2.14,0,0,0,1-.71,1.68,1.68,0,0,0,.31-1,1.45,1.45,0,0,0-.38-1.06,2.44,2.44,0,0,0-1-.63,10.13,10.13,0,0,0-1.34-.41c-.49-.12-1-.24-1.48-.38a6.22,6.22,0,0,1-1.35-.53,2.84,2.84,0,0,1-1-.89,2.54,2.54,0,0,1-.37-1.45,2.86,2.86,0,0,1,.43-1.53,3.2,3.2,0,0,1,1.36-1.12,5.55,5.55,0,0,1,2.33-.42,7.1,7.1,0,0,1,1.88.26,5.42,5.42,0,0,1,1.59.73l-.4,1a5.26,5.26,0,0,0-1.52-.71,5.81,5.81,0,0,0-1.56-.22,4.42,4.42,0,0,0-1.67.27,2.07,2.07,0,0,0-1,.73,1.84,1.84,0,0,0-.31,1,1.5,1.5,0,0,0,.38,1.06,2.58,2.58,0,0,0,1,.62,12.83,12.83,0,0,0,1.35.4l1.47.38a7,7,0,0,1,1.34.54,2.79,2.79,0,0,1,1,.87,2.47,2.47,0,0,1,.38,1.43,2.75,2.75,0,0,1-.45,1.51,3.11,3.11,0,0,1-1.37,1.12A5.7,5.7,0,0,1,133.49,133.68Z"/><path class="cls-1" d="M158.13,133.59V123.41H154.2v-1h9.05v1h-3.93v10.18Z"/><path class="cls-1" d="M180.85,133.59v-11.2H185a6.06,6.06,0,0,1,2.45.45,3.6,3.6,0,0,1,1.58,1.31,3.75,3.75,0,0,1,.55,2.08,3.66,3.66,0,0,1-.55,2,3.6,3.6,0,0,1-1.58,1.31A6.06,6.06,0,0,1,185,130h-3.53l.52-.54v4.1Zm1.18-4-.52-.56H185a3.86,3.86,0,0,0,2.55-.74,2.87,2.87,0,0,0,0-4.14,3.86,3.86,0,0,0-2.55-.74h-3.5l.52-.56Zm6.47,4-2.88-4.07h1.28l2.89,4.07Z"/><path class="cls-1" d="M208.13,133.59v-11.2h1.18v11.2Z"/><path class="cls-1" d="M229.86,132.56h6.73v1h-7.92v-11.2h7.68v1h-6.49Zm-.13-5.17h5.92v1h-5.92Z"/><path class="cls-1" d="M258.18,133.68a6.86,6.86,0,0,1-2.39-.41,4.53,4.53,0,0,1-1.77-1l.46-.92a4.72,4.72,0,0,0,1.59,1,5.77,5.77,0,0,0,2.11.39,4.65,4.65,0,0,0,1.72-.26,2.05,2.05,0,0,0,1-.71,1.69,1.69,0,0,0,.32-1,1.5,1.5,0,0,0-.38-1.06,2.52,2.52,0,0,0-1-.63,10.78,10.78,0,0,0-1.35-.41c-.49-.12-1-.24-1.47-.38a6.22,6.22,0,0,1-1.35-.53,2.84,2.84,0,0,1-1-.89,2.54,2.54,0,0,1-.38-1.45,2.86,2.86,0,0,1,.44-1.53,3.11,3.11,0,0,1,1.35-1.12,5.63,5.63,0,0,1,2.34-.42,7,7,0,0,1,1.87.26,5.49,5.49,0,0,1,1.6.73l-.4,1a5.32,5.32,0,0,0-1.53-.71,5.81,5.81,0,0,0-1.56-.22,4.4,4.4,0,0,0-1.66.27,2.07,2.07,0,0,0-1,.73,1.76,1.76,0,0,0-.31,1,1.49,1.49,0,0,0,.37,1.06,2.62,2.62,0,0,0,1,.62,12.83,12.83,0,0,0,1.35.4l1.46.38a6.79,6.79,0,0,1,1.35.54,2.79,2.79,0,0,1,1,.87,2.47,2.47,0,0,1,.37,1.43,2.82,2.82,0,0,1-.44,1.51,3.16,3.16,0,0,1-1.37,1.12A5.73,5.73,0,0,1,258.18,133.68Z"/><polygon class="cls-1" points="11.74 104.04 0 77.8 11.17 77.8 18.56 95.73 26.75 77.8 37.53 77.8 45.49 95.73 52.6 77.8 63.51 77.8 52.33 104.04 39.78 104.04 31.98 87.26 23.56 104.04 11.74 104.04"/><path class="cls-1" d="M108.39,104h15l-20-26.24H89.81L69.89,104H84.35L87.58,99h17.58ZM91.05,93.47l5.32-8.39,5.32,8.39Z"/><path class="cls-1" d="M144.33,104V94.41L125.75,77.8h12.83L150.38,88,161.75,77.8H175L155.94,94.28V104Z"/><path class="cls-1" d="M187.69,104V77.8h16.18l19.79,18-.06-18h11.1V104H217.47L198.7,85.54l.07,18.5Z"/><polygon class="cls-1" points="262.02 96.83 262.02 93.51 278.24 93.51 279.45 87.96 262.02 87.96 262.02 84 288.64 83.94 288.64 77.8 250.42 77.8 250.42 104.04 288.64 104.04 288.64 96.77 262.02 96.83"/><rect class="cls-1" x="3.43" y="110.33" width="281.79" height="5.11" rx="2.55"/><path class="cls-2" d="M99.66,0h26.57c-2.57,2.45-2.7,8.08-.15,9.88a3.33,3.33,0,0,0-1.76,3.19q.18,11.31,0,22.63c0,2,.63,2.42,2.49,2.4,5.59-.07,5.59,0,5.59-5.62,0-6.44,0-12.87,0-19.31,0-1,.42-2.24-1-2.79-.62-.24-.32-.5,0-.92,1.77-2,1.65-7.13-.3-9.33H157.7c-1.89,2.05-2.18,7-.48,9.33.2.26.74.46.27.76-2,1.26-1,3.18-1,4.76-.12,7,0,14-.09,21,0,1.73.5,2.14,2.17,2.14,5.78,0,5.78.1,5.78-5.68,0-6.34,0-12.69,0-19,0-1.12.44-2.44-1.14-3-.59-.23-.32-.47.07-.89,1.76-1.91,1.57-7.27-.32-9.45h26.23c-2.64,2.59-2.66,8.17.08,10-1.73.59-2,1.81-2,3.44q.14,12.41,0,24.83c0,1.82.38,3,2.36,3.59-18.86,3-33.71,12.27-45.06,27.57C133.24,54.16,118.37,44.76,99,42c2.1-.89,2.18-2.35,2.16-4-.06-8.09,0-16.19,0-24.28,0-1.2.51-2.62-1.13-3.34-.61-.27-.24-.54.09-.93C101.75,7.45,101.58,2.22,99.66,0Z"/></g></g></svg>